<svg preserveAspectRatio="xMidYMid meet" width="103" height="24" viewBox="0 0 102.978 24.2938" fill="none" xmlns="http://www.w3.org/2000/svg">
<g id="Group">
<path id="Vector" fill-rule="evenodd" clip-rule="evenodd" d="M73.9764 2.13357C73.9764 3.15052 73.1247 3.96832 72.0975 3.96832C71.0461 3.96832 70.1687 3.15052 70.1687 2.13357C70.1687 1.11662 71.0461 0.298828 72.0975 0.298828C73.1247 0.298828 73.9764 1.11662 73.9764 2.13357ZM73.2744 18.3977H70.8706C70.6695 18.3977 70.5454 18.2734 70.5454 18.0757V6.32284C70.5454 6.1251 70.6709 6.00081 70.8706 6.00081H73.2744C73.4998 6.00081 73.5997 6.1251 73.5997 6.32284V18.0757C73.5997 18.2734 73.4742 18.3977 73.2744 18.3977ZM48.5031 10.8596H54.6389C54.7901 10.8596 54.89 10.7607 54.8643 10.6124C54.6389 9.17456 53.2365 8.15761 51.4833 8.15761C49.7799 8.15761 48.4275 9.17315 48.2278 10.587C48.2021 10.7353 48.3277 10.8596 48.5031 10.8596ZM45.1235 12.1251C45.1235 8.43018 47.8283 5.7282 51.509 5.7282C55.0897 5.7282 58.0456 8.13354 57.7931 12.618C57.7931 12.8921 57.5934 13.0898 57.2923 13.0898H48.4275C48.252 13.0898 48.1764 13.2141 48.2021 13.3878C48.3277 14.9753 49.7799 16.19 51.5575 16.19C52.8585 16.19 53.9613 15.5954 54.512 14.6039C54.5876 14.4302 54.6874 14.3553 54.8629 14.3553H57.2424C57.4435 14.3553 57.5691 14.5036 57.4935 14.7522C56.7674 17.0842 54.4634 18.6703 51.7842 18.6703C47.8526 18.6703 45.1235 15.9923 45.1235 12.1251ZM43.7611 18.3977H33.6936C33.4925 18.3977 33.3669 18.2734 33.3712 18.0757V16.6124C33.3712 16.4132 33.4211 16.2155 33.571 16.0417L39.7809 8.85104C39.9065 8.70136 39.8066 8.50362 39.6311 8.50362H33.8962C33.6965 8.50362 33.571 8.37933 33.571 8.18159V6.32141C33.571 6.12367 33.6965 5.99937 33.8962 5.99937H43.5371C43.7368 5.99937 43.8624 6.12367 43.8624 6.32141V7.73526C43.8624 7.98386 43.7868 8.15753 43.6113 8.35534L37.3757 15.546C37.2502 15.6957 37.3757 15.8935 37.5511 15.8935H43.7611C43.9608 15.8935 44.0864 16.0178 44.0864 16.2155V18.0757C44.0864 18.2734 43.9608 18.3977 43.7611 18.3977ZM68.1416 6.00079H66.4882C64.9603 6.00079 63.9845 6.54598 63.458 7.7112C63.3083 8.03331 62.8817 7.95979 62.8817 7.63636V6.32283C62.8817 6.12508 62.7562 6.00079 62.5565 6.00079H60.4522C60.2526 6.00079 60.127 6.12508 60.127 6.32283V18.0757C60.127 18.2734 60.2526 18.3977 60.4522 18.3977H62.856C63.0815 18.3977 63.1814 18.2494 63.1814 18.0757V9.69573C63.1814 9.39768 63.4067 9.10104 63.732 9.10104H68.1387C68.3384 9.10104 68.464 8.97675 68.464 8.77901V6.32423C68.4669 6.12507 68.3413 6.00079 68.1416 6.00079ZM82.3331 16.0672C80.2544 16.0672 78.7765 14.4302 78.7765 12.1491C78.7765 9.91745 80.2544 8.33128 82.3331 8.33128C84.4118 8.33128 85.9139 9.91745 85.9139 12.1491C85.9139 14.4302 84.4103 16.0672 82.3331 16.0672ZM82.3573 18.6703C86.2136 18.6703 88.968 15.9429 88.968 12.1251C88.968 8.4062 86.2136 5.7282 82.3573 5.7282C78.4761 5.7282 75.6968 8.4062 75.6968 12.1251C75.6968 15.9429 78.4761 18.6703 82.3573 18.6703ZM102.978 10.8115V18.0757C102.978 18.2734 102.852 18.3977 102.651 18.3977H100.247C100.048 18.3977 99.9219 18.2734 99.9219 18.0757V11.3567C99.9219 9.42167 98.9442 8.33128 97.2166 8.33128C95.2143 8.33128 94.1367 9.47253 94.1367 11.6788V18.0757C94.1367 18.2734 94.0111 18.3977 93.8114 18.3977H91.408C91.2083 18.3977 91.0826 18.2734 91.0826 18.0757V6.32283C91.0826 6.12509 91.2083 6.0008 91.408 6.0008H93.5117C93.7115 6.0008 93.8371 6.12509 93.8371 6.34825V7.29035C93.8371 7.58839 94.1383 7.66323 94.3381 7.41464C95.1902 6.32283 96.5167 5.7282 98.0944 5.7282C100.999 5.7282 102.978 7.51351 102.978 10.8115Z" fill="var(--fill-0, white)" fill-opacity="0.8"/>
<path id="Vector_2" fill-rule="evenodd" clip-rule="evenodd" d="M6.93831 24.2938H17.5991C21.4312 24.2938 24.5374 21.2184 24.5374 17.4244V6.86943C24.5374 3.07539 21.4312 1.55997e-06 17.5991 1.55997e-06L6.93831 0C3.10621 0 1.25316e-06 3.07539 9.22313e-07 6.86943L0 17.4244C-3.30848e-07 21.2184 3.10621 24.2938 6.93831 24.2938ZM17.9862 16.7454C15.803 15.3974 12.9022 13.7428 10.5177 12.4676C9.93895 12.1585 9.1645 12.2739 8.68976 12.9445C7.80427 14.1935 6.7439 15.7697 6.01939 17.012C5.71822 17.5149 6.12072 18.18 6.72308 18.18H17.5254C18.304 18.18 18.6302 17.2043 17.9862 16.7454ZM13.9949 12.0528C11.691 10.8367 8.45981 8.98573 6.16416 7.58683C5.45493 7.15397 5.73806 6.11373 6.56528 6.11511C7.92054 6.11511 10.1229 6.11477 12.3142 6.11443C14.4833 6.11408 16.6415 6.11375 17.9561 6.11375C18.6182 6.11375 18.9582 6.79258 18.6765 7.26804C17.7257 8.87167 16.657 10.4904 15.7701 11.6983C15.3745 12.237 14.5723 12.3579 13.9949 12.0528Z" fill="var(--fill-0, white)" fill-opacity="0.8"/>
</g>
</svg>
